HIERARCHY
ROOT Hips
{
	OFFSET	0.000000	0.000000	0.000000
	CHANNELS 6 Xposition Yposition Zposition Zrotation Xrotation Yrotation
	JOINT LeftHip
	{
		OFFSET	4.740440	-3.195970	-0.322709
		CHANNELS 3 Zrotation Xrotation Yrotation
		JOINT LeftKnee
		{
			OFFSET	-1.605680	-15.592300	1.005510
			CHANNELS 3 Zrotation Xrotation Yrotation
			JOINT LeftAnkle
			{
				OFFSET	-0.632401	-16.421000	-1.413730
				CHANNELS 3 Zrotation Xrotation Yrotation
				End Site
				{
					OFFSET	0.008423	-3.021750	-1.660875
				}
			}
		}
	}
	JOINT RightHip
	{
		OFFSET	-4.740440	-3.195970	-0.322709
		CHANNELS 3 Zrotation Xrotation Yrotation
		JOINT RightKnee
		{
			OFFSET	1.605680	-15.592300	1.005510
			CHANNELS 3 Zrotation Xrotation Yrotation
			JOINT RightAnkle
			{
				OFFSET	0.632401	-16.421000	-1.413730
				CHANNELS 3 Zrotation Xrotation Yrotation
				End Site
				{
					OFFSET	-0.008423	-3.021750	-1.660875
				}
			}
		}
	}
	JOINT Chest
	{
		OFFSET	0.000000	3.468200	0.078401
		CHANNELS 3 Zrotation Xrotation Yrotation
		JOINT LeftCollar
		{
			OFFSET	3.857650	15.070700	-0.011583
			CHANNELS 3 Zrotation Xrotation Yrotation
			JOINT LeftShoulder
			{
				OFFSET	3.979720	-1.940530	-0.165223
				CHANNELS 3 Zrotation Xrotation Yrotation
				JOINT LeftElbow
				{
					OFFSET	0.615844	-10.986600	-0.673886
					CHANNELS 3 Zrotation Xrotation Yrotation
					JOINT LeftWrist
					{
						OFFSET	0.826843	-10.854500	1.034220
						CHANNELS 3 Zrotation Xrotation Yrotation
						End Site
						{
							OFFSET	-1.679080	-8.456540	0.936217
						}
					}
				}
			}
		}
		JOINT RightCollar
		{
			OFFSET	-3.857650	15.070700	-0.011583
			CHANNELS 3 Zrotation Xrotation Yrotation
			JOINT RightShoulder
			{
				OFFSET	-3.979720	-1.940530	-0.165223
				CHANNELS 3 Zrotation Xrotation Yrotation
				JOINT RightElbow
				{
					OFFSET	-0.615845	-10.986600	-0.673886
					CHANNELS 3 Zrotation Xrotation Yrotation
					JOINT RightWrist
					{
						OFFSET	-0.826843	-10.854500	1.034220
						CHANNELS 3 Zrotation Xrotation Yrotation
						End Site
						{
							OFFSET	1.679080	-8.456540	0.936217
						}
					}
				}
			}
		}
		JOINT Neck
		{
			OFFSET	0.000000	15.101400	0.055730
			CHANNELS 3 Zrotation Xrotation Yrotation
			JOINT Head
			{
				OFFSET	0.000000	4.185120	1.488260
				CHANNELS 3 Zrotation Xrotation Yrotation
				End Site
				{
					OFFSET	0.000000	7.773420	-0.106016
				}
			}
		}
	}
}
MOTION
Frames:     19
Frame Time: 0.016667
-0.053328	38.255322	-0.053936	0.007698	0.242273	0.088206	0.245362	-0.092433	0.643180	-0.208368	-0.792744	-0.550734	-0.052936	0.645287	-0.179591	-0.235038	0.343383	0.205533	-0.018611	-0.870567	-0.402324	0.241472	0.285804	0.106203	-0.390201	1.119744	0.945406	9.159898	-5.344836	-1.421426	62.722652	6.107194	15.275954	6.938768	1.012685	15.703569	16.467598	1.425570	-26.327312	-12.335288	-7.690775	-0.601875	-61.163662	8.712705	-26.959364	-11.445887	4.713507	7.561731	-12.703661	-3.720356	21.623913	-0.544598	-0.586446	1.294003	3.651588	3.562524	-6.301224	
-0.048531	38.256023	-0.049686	0.007698	0.242273	0.088206	0.245362	-0.092433	0.643180	-0.208368	-0.792744	-0.550734	-0.052936	0.645287	-0.179591	-0.253138	0.358182	0.213559	-0.000687	-0.885430	-0.410243	0.241472	0.285804	0.106203	-0.390201	1.119744	0.945406	9.198636	-5.375465	-1.464151	62.683876	6.161972	15.270833	6.938380	1.016735	15.668763	16.465521	1.431908	-26.296379	-12.335288	-7.690775	-0.601875	-61.168491	8.716843	-26.958811	-11.583123	4.621129	7.553200	-12.699333	-3.737257	21.593096	-0.535434	-0.580465	1.275573	3.601989	3.572067	-6.186921	
-0.047009	38.256245	-0.048336	0.007698	0.242273	0.088206	0.245362	-0.092433	0.643180	-0.208368	-0.792744	-0.550734	-0.052936	0.645287	-0.179591	-0.258881	0.362883	0.216107	0.005001	-0.890152	-0.412754	0.241472	0.285804	0.106203	-0.390201	1.119744	0.945406	9.221601	-5.393582	-1.489342	62.647621	6.178564	15.268362	6.954739	1.033728	15.622515	16.463455	1.439879	-26.251068	-12.335288	-7.690775	-0.601875	-61.203720	8.717133	-26.954933	-11.603906	4.603285	7.554706	-12.754554	-3.767998	21.619539	-0.529893	-0.579145	1.272862	3.560866	3.527596	-6.136497	
-0.042766	38.256866	-0.044576	0.007698	0.242273	0.088206	0.245362	-0.092433	0.643180	-0.208368	-0.792744	-0.550734	-0.052936	0.645287	-0.179591	-0.274893	0.375973	0.223215	0.020853	-0.903304	-0.419758	0.241472	0.285804	0.106203	-0.390201	1.119744	0.945406	9.265800	-5.428905	-1.539911	62.589752	6.226824	15.263763	6.971886	1.046354	15.618100	16.447666	1.452634	-26.243620	-12.335288	-7.690775	-0.601875	-61.291702	8.714368	-26.944618	-11.673332	4.551750	7.557442	-12.704957	-3.753735	21.675129	-0.511364	-0.574711	1.263767	3.528967	3.528710	-6.096061	
-0.041432	38.257057	-0.043394	0.007698	0.242273	0.088206	0.245362	-0.092433	0.643180	-0.208368	-0.792744	-0.550734	-0.052936	0.645287	-0.179591	-0.279921	0.380092	0.225435	0.025830	-0.907444	-0.421941	0.241472	0.285804	0.106203	-0.390201	1.119744	0.945406	9.268269	-5.430754	-1.542312	62.580753	6.222223	15.263677	6.977143	1.086215	15.621724	16.390207	1.460678	-26.226902	-12.335288	-7.690775	-0.601875	-61.382454	8.706982	-26.933933	-11.609254	4.593657	7.604247	-12.771371	-3.819025	21.663115	-0.498315	-0.571567	1.257372	3.482741	3.514488	-6.027998	
-0.037585	38.257614	-0.039990	0.007698	0.242273	0.088206	0.245362	-0.092433	0.643180	-0.208368	-0.792744	-0.550734	-0.052936	0.645287	-0.179591	-0.294437	0.391947	0.231859	0.040198	-0.919361	-0.428262	0.241472	0.285804	0.106203	-0.390201	1.119744	0.945406	9.291430	-5.448575	-1.565359	62.538750	6.230145	15.260856	6.997463	1.143336	15.625740	16.214846	1.557133	-26.184109	-12.335288	-7.690775	-0.601875	-61.458717	8.695927	-26.924952	-11.613085	4.610024	7.755856	-12.799676	-3.813026	21.551023	-0.484993	-0.568347	1.250854	3.458194	3.515797	-5.995043	
-0.037417	38.257641	-0.039837	0.007698	0.242273	0.088206	0.245362	-0.092433	0.643180	-0.208368	-0.792744	-0.550734	-0.052936	0.645287	-0.179591	-0.295071	0.392475	0.232166	0.040824	-0.919892	-0.428565	0.241472	0.285804	0.106203	-0.390201	1.119744	0.945406	9.321537	-5.484141	-1.585052	62.503914	6.258894	15.240601	7.003556	1.167395	15.627710	16.151886	1.587367	-26.168165	-12.335288	-7.690775	-0.601875	-61.508373	8.672845	-26.919100	-11.627160	4.625890	7.799179	-12.758322	-3.790824	21.527815	-0.477917	-0.566631	1.247386	3.450861	3.514454	-5.991410	
-0.037417	38.257641	-0.039837	0.007698	0.242273	0.088206	0.245362	-0.092433	0.643180	-0.208368	-0.792744	-0.550734	-0.052936	0.645287	-0.179591	-0.295071	0.392475	0.232166	0.040824	-0.919892	-0.428565	0.241472	0.285804	0.106203	-0.390201	1.119744	0.945406	9.350655	-5.508489	-1.612325	62.456871	6.274880	15.234372	7.023431	1.217757	15.649365	16.001053	1.662723	-26.147352	-12.335288	-7.690775	-0.601875	-61.523926	8.655308	-26.917091	-11.656392	4.625770	7.802026	-12.745441	-3.808626	21.521461	-0.456653	-0.561440	1.236982	3.419060	3.502426	-5.965503	
-0.037417	38.257641	-0.039837	0.007698	0.242273	0.088206	0.245362	-0.092433	0.643180	-0.208368	-0.792744	-0.550734	-0.052936	0.645287	-0.179591	-0.295071	0.392475	0.232166	0.040824	-0.919892	-0.428565	0.241472	0.285804	0.106203	-0.392646	1.114688	0.944988	9.354897	-5.504764	-1.614377	62.448975	6.269815	15.234385	7.030451	1.232040	15.653009	15.992699	1.658590	-26.147100	-12.332555	-7.685975	-0.600334	-61.523926	8.655308	-26.917091	-11.652435	4.623645	7.761242	-12.751530	-3.819783	21.531780	-0.447719	-0.554865	1.234352	3.396613	3.492384	-5.935114	
-0.037417	38.257641	-0.039837	0.007698	0.242273	0.088206	0.245362	-0.092433	0.643180	-0.208368	-0.792744	-0.550734	-0.052936	0.645287	-0.179591	-0.295071	0.392475	0.232166	0.040824	-0.919892	-0.428565	0.241472	0.285804	0.106203	-0.401322	1.096768	0.943502	9.363748	-5.486958	-1.615645	62.429897	6.247186	15.235219	7.051824	1.279633	15.655849	15.833866	1.648595	-26.081841	-12.322856	-7.668964	-0.594877	-61.540730	8.650630	-26.943472	-11.641719	4.629196	7.788777	-12.691865	-3.797137	21.467039	-0.421423	-0.532854	1.227632	3.378002	3.489265	-5.924597	
-0.037417	38.257641	-0.039837	0.007698	0.242273	0.088206	0.245362	-0.092433	0.643180	-0.208368	-0.792744	-0.550734	-0.052936	0.645287	-0.179591	-0.295071	0.392475	0.232166	0.040824	-0.919892	-0.428565	0.241472	0.285804	0.106203	-0.407188	1.084656	0.942496	9.369728	-5.474922	-1.616502	62.423531	6.239626	15.235504	7.058982	1.295260	15.656744	15.777632	1.636040	-26.071615	-12.316302	-7.657464	-0.591190	-61.551826	8.640116	-26.952997	-11.637824	4.640989	7.802680	-12.666618	-3.785465	21.462431	-0.405644	-0.518466	1.224060	3.367944	3.487380	-5.919604	
-0.037417	38.257641	-0.039837	0.007698	0.242273	0.088206	0.245362	-0.092433	0.643180	-0.208368	-0.792744	-0.550734	-0.052936	0.645287	-0.179591	-0.295071	0.392475	0.232166	0.040824	-0.919892	-0.428565	0.241472	0.285804	0.106203	-0.408655	1.070173	0.941687	9.385265	-5.471287	-1.631973	62.390583	6.235463	15.234200	7.081993	1.323475	15.657364	15.758046	1.630723	-26.143370	-12.314074	-7.643520	-0.587250	-61.560379	8.629154	-26.982626	-11.669991	4.627513	7.833931	-12.585030	-3.749273	21.461781	-0.398894	-0.502764	1.222513	3.362722	3.486387	-5.917002	
-0.037417	38.257641	-0.039837	0.007698	0.242273	0.088206	0.245362	-0.092433	0.643180	-0.208368	-0.792744	-0.550734	-0.052936	0.645287	-0.179591	-0.295071	0.392475	0.232166	0.040824	-0.919892	-0.428565	0.241472	0.285804	0.106203	-0.406240	1.061561	0.941427	9.389257	-5.467615	-1.639524	62.377625	6.236008	15.233521	7.090355	1.329294	15.657075	15.730612	1.652157	-26.142740	-12.316070	-7.635114	-0.585178	-61.560360	8.629107	-26.984142	-11.676613	4.623085	7.835015	-12.577980	-3.746319	21.463394	-0.401164	-0.494117	1.222788	3.362722	3.486387	-5.917002	
-0.039304	38.260925	-0.044616	0.046656	0.234252	0.140579	0.206339	-0.084539	0.590616	-0.208368	-0.792744	-0.550734	-0.052936	0.645287	-0.179591	-0.333650	0.400865	0.179678	0.040824	-0.919892	-0.428565	0.241472	0.285804	0.106203	-0.429860	1.054673	0.889194	9.392534	-5.465890	-1.660164	62.339840	6.235276	15.231740	7.106910	1.346324	15.656401	15.637854	1.685247	-26.143559	-12.329796	-7.619763	-0.582327	-61.541351	8.613235	-26.996025	-11.717253	4.616553	7.844093	-12.475966	-3.737788	21.457335	-0.415271	-0.478513	1.222383	3.377191	3.481246	-5.952193	
-0.039304	38.260925	-0.044616	0.046656	0.234252	0.140579	0.206339	-0.084539	0.590616	-0.208368	-0.792744	-0.550734	-0.052936	0.645287	-0.179591	-0.333650	0.400865	0.179678	0.040824	-0.919892	-0.428565	0.241472	0.285804	0.106203	-0.424064	1.051829	0.889458	9.387458	-5.463612	-1.661739	62.332008	6.227842	15.231949	7.104368	1.351606	15.656370	15.610500	1.710265	-26.134197	-12.335509	-7.616819	-0.582058	-61.505634	8.605108	-26.999880	-11.752780	4.607847	7.840798	-12.371539	-3.745432	21.446703	-0.421023	-0.475577	1.222036	3.381860	3.479589	-5.963534	
-0.039304	38.260925	-0.044616	0.046656	0.234252	0.140579	0.206339	-0.084539	0.590616	-0.208368	-0.792744	-0.550734	-0.052936	0.645287	-0.179591	-0.333650	0.400865	0.179678	0.040824	-0.919892	-0.428565	0.241472	0.285804	0.106203	-0.406995	1.043483	0.890251	9.370284	-5.455297	-1.664243	62.310505	6.202319	15.232864	7.087802	1.366948	15.656575	15.557872	1.776413	-26.239206	-12.352344	-7.608172	-0.581289	-61.402302	8.520142	-27.011774	-11.880326	4.633522	7.843595	-12.044763	-3.739719	21.409397	-0.437967	-0.466959	1.220997	3.390588	3.476480	-5.984776	
-0.039304	38.260925	-0.044616	0.046656	0.234252	0.140579	0.206339	-0.084539	0.590616	-0.208368	-0.792744	-0.550734	-0.052936	0.645287	-0.179591	-0.333650	0.400865	0.179678	0.040824	-0.919892	-0.428565	0.241472	0.285804	0.106203	-0.401001	1.040543	0.890529	9.364254	-5.452367	-1.665123	62.303299	6.193776	15.233178	7.080158	1.371897	15.656679	15.561607	1.783677	-26.332697	-12.358254	-7.605125	-0.581017	-61.369141	8.491691	-27.015522	-11.922218	4.643371	7.844643	-11.948631	-3.737787	21.398499	-0.443916	-0.463923	1.220632	3.390588	3.476480	-5.984776	
-0.039304	38.260925	-0.044616	0.046656	0.234252	0.140579	0.206339	-0.084539	0.590616	-0.208368	-0.792744	-0.550734	-0.052936	0.645287	-0.179591	-0.333650	0.400865	0.179678	0.040824	-0.919892	-0.428565	0.241472	0.285804	0.106203	-0.383111	1.031798	0.891361	9.350853	-5.447206	-1.672329	62.270542	6.166408	15.233675	7.034207	1.394733	15.614395	15.658123	1.940321	-26.581823	-12.375894	-7.596066	-0.580204	-61.284801	8.419291	-27.024975	-12.021653	4.656866	7.847944	-11.752395	-3.759415	21.428185	-0.461674	-0.454892	1.219550	3.390588	3.476480	-5.984776	
-0.039304	38.260925	-0.044616	0.046656	0.234252	0.140579	0.206339	-0.084539	0.590616	-0.208368	-0.792744	-0.550734	-0.052936	0.645287	-0.179591	-0.333650	0.400865	0.179678	0.040824	-0.919892	-0.428565	0.241472	0.285804	0.106203	-0.377453	1.029029	0.891619	9.350816	-5.448806	-1.678788	62.252544	6.159183	15.233345	7.021190	1.403832	15.611142	15.699994	1.977458	-26.636839	-12.381473	-7.593199	-0.579942	-61.254898	8.393610	-27.028307	-12.056890	4.661577	7.849138	-11.716361	-3.789782	21.492294	-0.467289	-0.452033	1.219213	3.390588	3.476480	-5.984776	
